<svg width="36" height="33" viewBox="0 0 36 33" fill="none" xmlns="http://www.w3.org/2000/svg">
<path opacity="0.8" fill-rule="evenodd" clip-rule="evenodd" d="M30.8908 0H4.16722C1.86559 0 0 1.73783 0 3.88289V28.8582C0 31.0024 1.86559 32.7411 4.16722 32.7411H30.8908C33.1924 32.7411 35.058 31.0024 35.058 28.8582V3.88289C35.058 1.73783 33.1924 0 30.8908 0ZM25.1988 5.1139C25.1988 4.54974 25.6894 4.0918 26.2937 4.0918H29.5802C30.1855 4.0918 30.6761 4.54974 30.6761 5.1139V8.18289C30.6761 8.74706 30.1855 9.205 29.5802 9.205H26.2937C25.6894 9.205 25.1988 8.74706 25.1988 8.18289V5.1139ZM17.5703 10.126C21.2939 10.126 24.3127 12.939 24.3127 16.4075C24.3127 19.877 21.2939 22.6891 17.5703 22.6891C13.8478 22.6891 10.829 19.877 10.829 16.4075C10.829 12.939 13.8478 10.126 17.5703 10.126ZM31.7727 28.6484C31.7727 29.2128 31.2822 29.6718 30.6769 29.6718H4.38363C3.77834 29.6718 3.2878 29.2128 3.2878 28.6484V13.3008H7.67017C7.09931 14.0679 6.90615 15.4994 6.90615 16.4085C6.90615 21.8873 11.6911 26.3453 17.5709 26.3453C23.4517 26.3453 28.2366 21.8873 28.2366 16.4085C28.2366 15.4994 28.098 14.0902 27.3904 13.3008H31.7727V28.6484Z" fill="white"/>
</svg>
