<svg width="36" height="33" viewBox="0 0 36 33" fill="none" xmlns="http://www.w3.org/2000/svg">
<path opacity="0.8" fill-rule="evenodd" clip-rule="evenodd" d="M35.7719 30.9334C35.7719 31.9313 34.9057 32.7411 33.8371 32.7411H24.9033V20.0619H29.4605L30.1433 15.1211H24.9033V11.9658C24.9033 10.5353 25.3293 9.56049 27.5257 9.56049L30.3276 9.5596V5.13966C29.8425 5.0799 28.1799 4.94524 26.2451 4.94524C22.2055 4.94524 19.4399 7.24796 19.4399 11.477V15.1211H14.8713V20.0619H19.4399V32.7411H2.64864C1.58003 32.7411 0.713867 31.9313 0.713867 30.9334V1.80775C0.713867 0.808896 1.58003 0 2.64864 0H33.8371C34.9057 0 35.7719 0.808896 35.7719 1.80775V30.9334Z" fill="white"/>
</svg>
