<svg version="1.1" preserveAspectRatio="none" xmlns="http://www.w3.org/2000/svg" width="500" height="500" viewBox="0 0 500 500"><rect width="100%" height="100%" fill="#FFFFFF" fill-opacity="1"/><svg viewBox="192.573 203.666 334.7223 146.943" width="333" height="146.1869107615477" x="83.5px" y="176.9065px" xmlns="http://www.w3.org/2000/svg" xmlns:xlink="http://www.w3.org/1999/xlink" preserveAspectRatio="none"><defs></defs><style>.companyName {fill:#1e1e1e;fill-opacity:1;}.icon3-str {stroke:#848383;stroke-opacity:1;}</style><g opacity="1" transform="rotate(-10 192.573 259.8652)">
<svg width="323.6385" height="92.1437" x="192.573" y="259.8652" version="1.1" preserveAspectRatio="none" viewBox="0.12 -31.44 115.88 33">
  <g transform="matrix(1 0 0 1 0 0)" class="companyName"><path id="id-D6z1nYkh7" d="M15-1.44L15-1.44Q11.28 1.56 6.76 1.56L6.76 1.56Q1.60 1.56 0.40-1.32L0.40-1.32Q0.12-2 0.12-2.90Q0.12-3.80 1.04-4.84L1.04-4.84Q2.48-6.48 5.04-6.48L5.04-6.48Q6.76-6.48 8.50-5.86Q10.24-5.24 14.68-2.88L14.68-2.88Q16.68-4.80 18.68-8Q20.68-11.20 22.14-14.18Q23.60-17.16 25.70-20.68Q27.80-24.20 29.88-26.52L29.88-26.52Q25.40-29.20 20.36-29.20L20.36-29.20Q18.28-29.20 16.12-28.76L16.12-28.76Q9.92-27.44 6.68-23.36L6.68-23.36Q4.68-20.88 4.68-18.64L4.68-18.64Q4.68-15.60 7.60-14.68L7.60-14.68Q8.64-14.40 9.40-14.40Q10.16-14.40 11.10-14.64Q12.04-14.88 12.96-15.76L12.96-15.76Q14.72-17.52 14.84-19.04L14.84-19.04Q14.88-19.40 15.30-19.30Q15.72-19.20 15.64-18.68L15.64-18.68Q15.24-15.76 12.56-14.24L12.56-14.24Q10.92-13.36 9.28-13.36L9.28-13.36L7.20-13.72Q4.16-14.76 3.20-17.60L3.20-17.60Q2.80-18.68 2.80-19.76L2.80-19.76Q2.80-21.96 4.44-24.12L4.44-24.12Q7.96-28.84 16.92-30.16L16.92-30.16Q18.68-30.40 20.40-30.40L20.40-30.40Q25.96-30.40 31-27.76L31-27.76Q32.56-29.56 33.88-30.50Q35.20-31.44 36-31.44L36-31.44Q36.44-31.44 36.52-31.26Q36.60-31.08 36.50-30.98Q36.40-30.88 36.24-30.88L36.24-30.88Q35.56-30.88 34.48-29.44Q33.40-28 32.72-26.76L32.72-26.76Q37-23.92 39.24-19.48L39.24-19.48Q41.04-15.92 41.04-11.72L41.04-11.72Q41.04-6.52 38.56-3.44L38.56-3.44Q36.52-0.92 33.60 0.12L33.60 0.12Q30.12 1.36 26.72 1.36L26.72 1.36Q19.84 1.36 15-1.44ZM15.96-2.16L15.96-2.16Q20 0.24 25.44 0.24L25.44 0.24Q31.76 0.24 35.52-3.36L35.52-3.36Q38.52-6.28 38.52-11.44L38.52-11.44Q38.52-15.12 37.08-18.36L37.08-18.36Q35.28-22.48 31.76-25.24L31.76-25.24Q30.60-23.44 27.30-17.98Q24-12.52 21.72-9.12Q19.44-5.72 18.12-4.30Q16.80-2.88 15.96-2.16ZM13.64-2.08L13.64-2.08Q8.96-4.32 7.72-4.76Q6.48-5.20 5.30-5.20Q4.12-5.20 3.42-4.32Q2.72-3.44 2.72-2.74Q2.72-2.04 3.04-1.40L3.04-1.40Q3.88 0.32 6.48 0.32L6.48 0.32Q10.32 0.32 13.64-2.08Z M44.60-6.16L44.60-6.16Q44.04-4.80 44.04-3.12L44.04-3.12Q44.04-2 44.54-1.34Q45.04-0.68 45.96-0.68L45.96-0.68Q49.60-0.68 52.56-7.52L52.56-7.52Q52.84-8.16 53.24-8.08L53.24-8.08Q53.40-8.04 53.40-7.88Q53.40-7.72 52.50-5.78Q51.60-3.84 50.68-2.64L50.68-2.64Q48.64 0.16 45.64 0.16L45.64 0.16Q44.04 0.16 42.92-0.88Q41.80-1.92 41.80-3.72Q41.80-5.52 42.66-7.54Q43.52-9.56 45-11.30Q46.48-13.04 48.40-13.84L48.40-13.84Q49.32-14.24 50.16-14.24Q51-14.24 51.72-13.76L51.72-13.76Q52.40-13.20 52.40-12.52L52.40-12.52Q52.40-10.12 49.52-7.92L49.52-7.92Q48.64-7.24 47.04-6.70Q45.44-6.16 44.60-6.16ZM51.32-12.56L51.32-12.56Q51.32-13.36 50.68-13.36L50.68-13.36Q49.56-13.36 47.28-10.60L47.28-10.60Q45.92-8.92 44.88-6.84L44.88-6.84Q45.56-6.84 46.86-7.32Q48.16-7.80 49.12-8.60L49.12-8.60Q51.32-10.48 51.32-12.56Z M63.32-13.96L63.32-13.96L63.12-13.24Q61.08-6.88 59.36-3.96L59.36-3.96Q56.84 0.28 54.08 0.28L54.08 0.28Q51.84 0.28 51.84-1.88L51.84-1.88Q51.84-3.52 53.04-6.96L53.04-6.96Q52.64-6.32 52.42-6.54Q52.20-6.76 52.32-7.08L52.32-7.08L53.04-8.44Q53.80-10 53.80-11.56Q53.80-13.12 53.16-13.40L53.16-13.40Q55.56-13.80 55.96-13.78Q56.36-13.76 56.46-13.44Q56.56-13.12 56.56-12.72L56.56-12.72Q56.56-10.28 55.30-6.96Q54.04-3.64 54.04-2.50Q54.04-1.36 54.40-1.18Q54.76-1 55.12-1L55.12-1Q56.16-1 57.48-2.68Q58.80-4.36 60.12-7.64L60.12-7.64Q59.56-8.92 59.56-9.90Q59.56-10.88 59.80-11.64L59.80-11.64Q60.52-13.92 62.08-14.48L62.08-14.48Q62.40-14.60 62.68-14.60L62.68-14.60Q63.32-14.60 63.32-13.96Z M82.08-13.12L82.08-13.12Q77.20-4.44 77.20-1.92L77.20-1.92Q77.20-0.80 77.96-0.80L77.96-0.80Q78.92-0.80 80.16-2.24L80.16-2.24Q82.04-4.52 83.44-7.72L83.44-7.72Q83.68-8.28 83.92-8.16Q84.16-8.04 84.16-7.84Q84.16-7.64 83.76-6.84Q83.36-6.04 83.12-5.56Q82.88-5.08 82.06-3.72Q81.24-2.36 80.66-1.72Q80.08-1.08 79.18-0.46Q78.28 0.16 77.14 0.16Q76.00 0.16 75.20-0.96L75.20-0.96Q74.84-1.48 74.84-2.38Q74.84-3.28 75.24-4.56Q75.64-5.84 77.44-8.72L77.44-8.72Q77.88-9.44 77.88-9.86Q77.88-10.28 77.22-10.28Q76.56-10.28 74.84-8.68Q73.12-7.08 71.22-4.36Q69.32-1.64 68.96 0L68.96 0Q68.28 0 67.96-0.56Q67.64-1.12 67.64-1.52L67.64-1.52Q67.64-3.16 69.84-7.76L69.84-7.76Q70.56-9.28 70.60-9.82Q70.64-10.36 70.46-10.38Q70.28-10.40 69.96-10.24L69.96-10.24Q69.24-9.88 67.76-8.48L67.76-8.48Q64.96-5.92 62.24-0.68L62.24-0.68Q62.04-0.24 61.74-0.14Q61.44-0.04 60.56 0Q59.68 0.04 59.40 0.20L59.40 0.20Q60.12-1.20 61.92-5.04L61.92-5.04Q65.16-11.92 66.24-12.96L66.24-12.96Q66.72-13.44 67.56-13.44L67.56-13.44Q67.72-13.44 68.38-13.32Q69.04-13.20 69.36-13.28L69.36-13.28Q67.88-12.48 64.52-5.76L64.52-5.76Q66.40-8.08 67.22-8.80Q68.04-9.52 68.44-9.88Q68.84-10.24 69.06-10.44Q69.28-10.64 69.70-11.02Q70.12-11.40 70.34-11.58Q70.56-11.76 70.96-12.08Q71.36-12.40 71.58-12.50Q71.80-12.60 72.18-12.84Q72.56-13.08 72.74-13.08Q72.92-13.08 73.24-13.18Q73.56-13.28 73.68-13.12L73.68-13.12Q74.48-12.80 74.48-12.12L74.48-12.12Q74.48-11.52 73.12-9.04Q71.76-6.56 71.36-5.76L71.36-5.76Q73.12-7.96 74.72-9.38Q76.32-10.80 78.50-12Q80.68-13.20 81.68-13.20L81.68-13.20Q81.92-13.20 82.08-13.12Z M95.60-10.84Q94.88-10.12 93.56-7.58Q92.24-5.04 91.98-3.78Q91.72-2.52 91.72-1.74Q91.72-0.96 92.32-0.96L92.32-0.96Q93.08-0.96 94.20-2.36L94.20-2.36Q95.84-4.40 97.44-7.68L97.44-7.68Q97.60-8.04 97.80-8.08L97.80-8.08Q98.12-8.20 98.12-7.84L98.12-7.84Q98.12-7.64 98.00-7.36L98.00-7.36Q94.32 0.08 91.80 0.08L91.80 0.08Q90.64 0.08 89.92-1.04L89.92-1.04Q89.56-1.64 89.56-2.64Q89.56-3.64 89.96-5.08L89.96-5.08Q86.76 0.08 84.44 0.08L84.44 0.08Q83.80 0.08 83.28-0.32L83.28-0.32Q82.08-1.16 82.08-3.20L82.08-3.20Q82.08-7.12 85.48-11.16L85.48-11.16Q87.40-13.40 90.20-14.08L90.20-14.08Q90.96-14.28 91.64-14.28L91.64-14.28Q93.48-14.28 94.76-13L94.76-13Q95.16-12.56 95.00-12.16Q94.84-11.76 94.32-11.84L94.32-11.84Q93.88-13.28 92.40-13.28L92.40-13.28Q90.68-13.28 88.16-10.56L88.16-10.56Q86.72-8.96 85.48-6.80L85.48-6.80Q83.92-4.20 83.92-2.64Q83.92-1.08 84.92-1.08L84.92-1.08Q87.32-1.08 91.20-8.44L91.20-8.44Q91.96-9.92 92.48-10.46Q93.00-11 93.80-11L93.80-11Q93.96-11 94.62-10.88Q95.28-10.76 95.60-10.84L95.60-10.84Z M96.44-3.20L96.44-3.20Q96.44-6.52 99.64-14.32L99.64-14.32L97.56-14.32Q97.36-14.32 97.30-14.54Q97.24-14.76 97.34-14.98Q97.44-15.20 97.64-15.20L97.64-15.20L100.04-15.20Q101.48-18.36 102.72-20.48Q103.96-22.60 105.00-23.34Q106.04-24.08 106.50-24.08Q106.96-24.08 107.16-24L107.16-24Q108.08-23.56 108.08-22.18Q108.08-20.80 107.16-18.84Q106.24-16.88 105.36-15.20L105.36-15.20L107.28-15.20Q107.48-15.20 107.54-14.98Q107.60-14.76 107.50-14.54Q107.40-14.32 107.20-14.32L107.20-14.32L104.88-14.32Q102.68-10.60 99.56-7.72L99.56-7.72L98.64-3.64Q98.52-3.12 98.52-2.62Q98.52-2.12 98.80-1.60Q99.08-1.08 99.68-1.08L99.68-1.08Q100.36-1.08 101.20-1.56L101.20-1.56Q103.12-3 105.44-7.60L105.44-7.60Q105.60-7.96 105.82-8.04Q106.04-8.12 106.08-7.94Q106.12-7.76 105.96-7.36L105.96-7.36Q104.64-4.60 103.88-3.44L103.88-3.44Q101.72 0.04 99.28 0.04L99.28 0.04Q98.04 0.04 97.24-0.88Q96.44-1.80 96.44-3.20ZM102.48-15.20L104.48-15.20Q107.12-19.92 107.12-21.76L107.12-21.76Q107.12-22.56 106.84-22.56L106.84-22.56Q106.40-22.56 105.50-21.28Q104.60-20 102.48-15.20L102.48-15.20ZM103.96-14.32L103.96-14.32L102.08-14.32Q101.60-13.20 99.92-9L99.92-9Q102.08-11.24 103.96-14.32Z M107.20-6.16L107.20-6.16Q106.64-4.80 106.64-3.12L106.64-3.12Q106.64-2 107.14-1.34Q107.64-0.68 108.56-0.68L108.56-0.68Q112.20-0.68 115.16-7.52L115.16-7.52Q115.44-8.16 115.84-8.08L115.84-8.08Q116.00-8.04 116.00-7.88Q116.00-7.72 115.10-5.78Q114.20-3.84 113.28-2.64L113.28-2.64Q111.24 0.16 108.24 0.16L108.24 0.16Q106.64 0.16 105.52-0.88Q104.40-1.92 104.40-3.72Q104.40-5.52 105.26-7.54Q106.12-9.56 107.60-11.30Q109.08-13.04 111.00-13.84L111.00-13.84Q111.92-14.24 112.76-14.24Q113.60-14.24 114.32-13.76L114.32-13.76Q115.00-13.20 115.00-12.52L115.00-12.52Q115.00-10.12 112.12-7.92L112.12-7.92Q111.24-7.24 109.64-6.70Q108.04-6.16 107.20-6.16ZM113.92-12.56L113.92-12.56Q113.92-13.36 113.28-13.36L113.28-13.36Q112.16-13.36 109.88-10.60L109.88-10.60Q108.52-8.92 107.48-6.84L107.48-6.84Q108.16-6.84 109.46-7.32Q110.76-7.80 111.72-8.60L111.72-8.60Q113.92-10.48 113.92-12.56Z"/></g>
</svg>
</g></svg></svg>